<svg xmlns="http://www.w3.org/2000/svg" xmlns:xlink="http://www.w3.org/1999/xlink" width="200" zoomAndPan="magnify" viewBox="0 0 150 149.999998" height="200" preserveAspectRatio="xMidYMid meet" version="1.0"><defs><g/></defs><g fill="#ffffff" fill-opacity="1"><g transform="translate(15.471523, 56.531733)"><g><path d="M 0.730469 -2.007812 L -7.496094 -5.003906 L -7.808594 -4.144531 L 0.417969 -1.144531 Z M 0.730469 -2.007812 "/></g></g></g><g fill="#ffffff" fill-opacity="1"><g transform="translate(19.161234, 47.45639)"><g><path d="M -6.820312 -5.621094 L 0.636719 -1.039062 L 2.003906 -3.257812 C 3.34375 -5.441406 2.894531 -8.128906 0.675781 -9.492188 C -1.429688 -10.789062 -4.027344 -10.167969 -5.457031 -7.84375 Z M 0.382812 -2.269531 L -5.609375 -5.953125 L -4.746094 -7.351562 C -3.554688 -9.296875 -1.515625 -9.726562 0.199219 -8.671875 C 1.941406 -7.601562 2.410156 -5.566406 1.25 -3.679688 Z M 0.382812 -2.269531 "/></g></g></g><g fill="#ffffff" fill-opacity="1"><g transform="translate(27.842764, 34.824708)"><g><path d="M 0.691406 -0.683594 L -0.191406 -2.949219 L 3.207031 -6.300781 L 5.453125 -5.378906 L 6.148438 -6.058594 L -2.691406 -9.640625 L -3.429688 -8.910156 L 0.0234375 -0.0234375 Z M 2.363281 -6.648438 L -0.535156 -3.792969 L -2.40625 -8.589844 Z M 2.363281 -6.648438 "/></g></g></g><g fill="#ffffff" fill-opacity="1"><g transform="translate(39.025225, 24.877278)"><g><path d="M 2.035156 -5.546875 L 2.335938 -11.632812 L 1.4375 -11.089844 L 1.203125 -6.0625 L -3.324219 -8.21875 L -4.269531 -7.648438 L 1.246094 -5.058594 L 3.152344 -1.898438 L 3.945312 -2.378906 Z M 2.035156 -5.546875 "/></g></g></g><g fill="#ffffff" fill-opacity="1"><g transform="translate(51.877976, 17.972223)"><g><path d="M 0.925781 -0.292969 L 1.167969 -2.714844 L 5.722656 -4.15625 L 7.300781 -2.3125 L 8.230469 -2.605469 L 1.984375 -9.8125 L 0.992188 -9.5 L 0.03125 -0.0117188 Z M 5.125 -4.847656 L 1.246094 -3.621094 L 1.757812 -8.742188 Z M 5.125 -4.847656 "/></g></g></g><g fill="#ffffff" fill-opacity="1"><g transform="translate(66.389321, 14.218856)"><g><path d="M 2.535156 -8.117188 L 3.15625 -0.25 L 4.078125 -0.320312 L 3.457031 -8.191406 L 6.367188 -8.421875 L 6.300781 -9.28125 L -0.453125 -8.746094 L -0.386719 -7.886719 Z M 2.535156 -8.117188 "/></g></g></g><g fill="#ffffff" fill-opacity="1"><g transform="translate(80.096074, 13.932791)"><g/></g></g><g fill="#ffffff" fill-opacity="1"><g transform="translate(89.597405, 15.377646)"><g><path d="M 3.402344 1.113281 C 5.082031 1.621094 6.433594 0.8125 6.804688 -0.421875 C 6.972656 -0.976562 6.886719 -1.515625 6.652344 -2.007812 C 6.339844 -2.648438 5.691406 -3.207031 4.859375 -3.699219 C 3.691406 -4.402344 3.292969 -4.976562 3.519531 -5.738281 C 3.785156 -6.617188 4.785156 -6.910156 5.683594 -6.640625 C 6.796875 -6.304688 7.128906 -5.507812 7.199219 -4.726562 L 8.074219 -4.917969 C 8 -6.027344 7.34375 -7.039062 5.953125 -7.460938 C 4.5625 -7.878906 3.0625 -7.394531 2.628906 -5.957031 C 2.28125 -4.792969 2.839844 -3.816406 4.4375 -2.882812 C 5.589844 -2.207031 6.148438 -1.503906 5.886719 -0.625 C 5.621094 0.253906 4.632812 0.585938 3.648438 0.289062 C 2.503906 -0.0546875 2.097656 -0.875 1.992188 -1.96875 L 1.113281 -1.800781 C 1.210938 -0.382812 1.933594 0.675781 3.402344 1.113281 Z M 3.402344 1.113281 "/></g></g></g><g fill="#ffffff" fill-opacity="1"><g transform="translate(102.202711, 19.816542)"><g><path d="M 0.84375 0.480469 L 2.789062 -0.984375 L 6.9375 1.378906 L 6.65625 3.792969 L 7.5 4.273438 L 8.550781 -5.203125 L 7.648438 -5.71875 L 0.0273438 0.015625 Z M 7.039062 0.472656 L 3.503906 -1.542969 L 7.613281 -4.644531 Z M 7.039062 0.472656 "/></g></g></g><g fill="#ffffff" fill-opacity="1"><g transform="translate(114.81417, 27.827645)"><g><path d="M 6.035156 5.777344 L 12.089844 -0.550781 L 11.433594 -1.175781 L 6.378906 4.105469 L 7.703125 -4.746094 L 6.933594 -5.480469 L 0.878906 0.84375 L 1.535156 1.46875 L 6.691406 -3.917969 L 5.324219 5.09375 Z M 6.035156 5.777344 "/></g></g></g><g fill="#ffffff" fill-opacity="1"><g transform="translate(125.682256, 39.322888)"><g><path d="M 4.402344 7.097656 L 11.84375 2.484375 L 11.367188 1.714844 L 5.148438 5.570312 L 8.644531 -2.675781 L 8.082031 -3.578125 L 0.640625 1.035156 L 1.121094 1.804688 L 7.457031 -2.125 L 3.882812 6.261719 Z M 4.402344 7.097656 "/></g></g></g><g fill="#ffffff" fill-opacity="1"><g transform="translate(133.248355, 53.371658)"><g><path d="M 0.730469 2.007812 L 8.957031 -0.992188 L 8.644531 -1.851562 L 0.417969 1.144531 Z M 0.730469 2.007812 "/></g></g></g><g fill="#ffffff" fill-opacity="1"><g transform="translate(16.378622, 116.218576)"><g><path d="M 7.648438 -4.433594 L 0.75 0.960938 L 2.355469 3.011719 C 3.933594 5.03125 6.609375 5.550781 8.660156 3.945312 C 10.609375 2.421875 10.933594 -0.230469 9.253906 -2.378906 Z M 1.992188 1.152344 L 7.535156 -3.179688 L 8.546875 -1.882812 C 9.953125 -0.0859375 9.644531 1.96875 8.058594 3.210938 C 6.445312 4.46875 4.375 4.199219 3.011719 2.457031 Z M 1.992188 1.152344 "/></g></g></g><g fill="#ffffff" fill-opacity="1"><g transform="translate(27.639549, 128.966922)"><g><path d="M 10.167969 -1.984375 L 10.699219 -2.648438 L 6.421875 -6.074219 L 0.953125 0.761719 L 5.261719 4.214844 L 5.792969 3.550781 L 2.199219 0.671875 L 4.183594 -1.808594 L 7.4375 0.800781 L 7.96875 0.136719 L 4.714844 -2.472656 L 6.609375 -4.835938 Z M 10.167969 -1.984375 "/></g></g></g><g fill="#ffffff" fill-opacity="1"><g transform="translate(40.16186, 137.908514)"><g><path d="M 4.011719 -7.785156 L 3.410156 1.632812 L 4.335938 2.074219 L 11.292969 -4.300781 L 10.398438 -4.730469 L 4.320312 0.914062 L 4.929688 -7.347656 Z M 4.011719 -7.785156 "/></g></g></g><g fill="#ffffff" fill-opacity="1"><g transform="translate(55.477005, 144.158486)"><g><path d="M 8.246094 -6.273438 L 8.429688 -7.101562 L 3.082031 -8.285156 L 1.191406 0.261719 L 6.582031 1.457031 L 6.765625 0.625 L 2.269531 -0.367188 L 2.953125 -3.46875 L 7.027344 -2.566406 L 7.210938 -3.398438 L 3.136719 -4.300781 L 3.792969 -7.257812 Z M 8.246094 -6.273438 "/></g></g></g><g fill="#ffffff" fill-opacity="1"><g transform="translate(70.605131, 146.593783)"><g><path d="M 2.140625 -0.851562 L 2.175781 -8.746094 L 1.257812 -8.75 L 1.21875 0.00390625 L 6.285156 0.0273438 L 6.289062 -0.832031 Z M 2.140625 -0.851562 "/></g></g></g><g fill="#ffffff" fill-opacity="1"><g transform="translate(85.096845, 145.934109)"><g><path d="M 8.164062 -6.417969 C 7.601562 -8.847656 5.332031 -10.316406 2.890625 -9.75 C 0.417969 -9.175781 -0.964844 -6.824219 -0.394531 -4.375 C 0.167969 -1.945312 2.4375 -0.472656 4.878906 -1.039062 C 7.351562 -1.613281 8.734375 -3.964844 8.164062 -6.417969 Z M 7.25 -6.148438 C 7.695312 -4.242188 6.675781 -2.339844 4.714844 -1.886719 C 2.734375 -1.425781 0.964844 -2.714844 0.519531 -4.644531 C 0.078125 -6.550781 1.09375 -8.449219 3.054688 -8.90625 C 5.035156 -9.363281 6.808594 -8.066406 7.25 -6.148438 Z M 7.25 -6.148438 "/></g></g></g><g fill="#ffffff" fill-opacity="1"><g transform="translate(102.3478, 140.796674)"><g><path d="M 1.085938 -0.550781 L 1.90625 -0.964844 L 0.359375 -4.015625 L 2.015625 -4.855469 C 3.910156 -5.816406 4.347656 -7.402344 3.675781 -8.730469 C 3.058594 -9.949219 1.652344 -10.648438 -0.253906 -9.683594 L -2.867188 -8.363281 Z M -0.0234375 -4.777344 L -1.660156 -8.007812 L 0.0625 -8.882812 C 1.601562 -9.660156 2.464844 -9.042969 2.851562 -8.277344 C 3.253906 -7.488281 3.097656 -6.355469 1.660156 -5.628906 Z M -0.0234375 -4.777344 "/></g></g></g><g fill="#ffffff" fill-opacity="1"><g transform="translate(115.791565, 132.990529)"><g><path d="M 0.132812 -10.359375 L -0.410156 -11.015625 L -4.632812 -7.527344 L 0.941406 -0.777344 L 5.199219 -4.292969 L 4.660156 -4.949219 L 1.105469 -2.015625 L -0.914062 -4.464844 L 2.300781 -7.121094 L 1.757812 -7.773438 L -1.457031 -5.121094 L -3.386719 -7.457031 Z M 0.132812 -10.359375 "/></g></g></g><g fill="#ffffff" fill-opacity="1"><g transform="translate(127.080839, 122.560497)"><g><path d="M -1.507812 -3.855469 L -0.414062 -5.273438 L 3.96875 -5.15625 L 4.652344 -6.042969 L 0.0664062 -6.15625 C 0.734375 -7.296875 0.738281 -8.675781 -0.449219 -9.589844 C -1.53125 -10.421875 -3.042969 -10.398438 -4.347656 -8.707031 L -6.195312 -6.304688 L 0.742188 -0.964844 L 1.300781 -1.691406 Z M -2.171875 -4.367188 L -4.953125 -6.507812 L -3.699219 -8.136719 C -2.683594 -9.457031 -1.671875 -9.359375 -0.988281 -8.832031 C -0.289062 -8.292969 0.0390625 -7.238281 -0.929688 -5.980469 Z M -2.171875 -4.367188 "/></g></g></g><g fill="#ffffff" fill-opacity="1"><g transform="translate(90.080355, 92.740182)"><g><path d="M 22.171875 -27.546875 C 20.960938 -28.191406 19.675781 -28.710938 18.3125 -29.109375 C 16.957031 -29.515625 15.675781 -29.71875 14.46875 -29.71875 C 12.644531 -29.71875 11.195312 -29.304688 10.125 -28.484375 C 9.0625 -27.671875 8.53125 -26.554688 8.53125 -25.140625 C 8.53125 -23.742188 9.15625 -22.601562 10.40625 -21.71875 C 11.664062 -20.84375 13.453125 -19.972656 15.765625 -19.109375 C 17.492188 -18.484375 18.953125 -17.804688 20.140625 -17.078125 C 21.335938 -16.359375 22.328125 -15.359375 23.109375 -14.078125 C 23.898438 -12.796875 24.296875 -11.164062 24.296875 -9.1875 C 24.296875 -7.394531 23.847656 -5.769531 22.953125 -4.3125 C 22.054688 -2.863281 20.78125 -1.71875 19.125 -0.875 C 17.476562 -0.0390625 15.539062 0.375 13.3125 0.375 C 11.238281 0.375 9.242188 0.0390625 7.328125 -0.625 C 5.410156 -1.289062 3.722656 -2.132812 2.265625 -3.15625 L 4.265625 -6.71875 C 5.410156 -5.851562 6.785156 -5.117188 8.390625 -4.515625 C 10.003906 -3.921875 11.503906 -3.625 12.890625 -3.625 C 14.679688 -3.625 16.25 -4.085938 17.59375 -5.015625 C 18.9375 -5.941406 19.609375 -7.316406 19.609375 -9.140625 C 19.609375 -10.679688 19.046875 -11.90625 17.921875 -12.8125 C 16.796875 -13.726562 15.210938 -14.585938 13.171875 -15.390625 C 11.285156 -16.109375 9.710938 -16.804688 8.453125 -17.484375 C 7.203125 -18.160156 6.128906 -19.09375 5.234375 -20.28125 C 4.335938 -21.476562 3.890625 -22.972656 3.890625 -24.765625 C 3.890625 -27.390625 4.8125 -29.515625 6.65625 -31.140625 C 8.5 -32.765625 10.882812 -33.625 13.8125 -33.71875 C 17.4375 -33.71875 20.796875 -32.820312 23.890625 -31.03125 Z M 22.171875 -27.546875 "/></g></g></g><g fill="#ffffff" fill-opacity="1"><g transform="translate(39.622948, 92.740182)"><g><path d="M 9.328125 -33.53125 L 9.328125 0 L 4.828125 0 L 4.828125 -33.53125 Z M 9.328125 -33.53125 "/></g></g></g><path stroke-linecap="butt" transform="matrix(0.000000000000000046, -0.752115, 0.75, 0.000000000000000046, 73.874507, 114.128623)" fill="none" stroke-linejoin="miter" d="M -0.000376149 1.500657 L 99.718372 1.500657 " stroke="#ffffff" stroke-width="3" stroke-opacity="1" stroke-miterlimit="4"/></svg>